<svg width="709" height="250" viewBox="0 0 709 250" fill="none" xmlns="http://www.w3.org/2000/svg">
<path d="M307.497 135.348V208.142C307.497 222.219 304.026 232.618 297.106 239.34C290.314 246.168 279.988 249.581 266.148 249.581C258.504 249.581 251.222 248.425 244.302 246.115C237.489 243.909 231.932 240.811 227.652 236.819L233.294 228.31C237.276 231.881 242.109 234.664 247.773 236.661C253.522 238.656 259.547 239.655 265.85 239.655C276.325 239.655 284.012 237.185 288.952 232.249C293.87 227.416 296.34 219.855 296.34 209.56V199.004C292.869 204.256 288.313 208.247 282.649 210.978C277.113 213.71 270.917 215.075 264.104 215.075C256.354 215.075 249.284 213.393 242.897 210.033C236.594 206.567 231.634 201.787 227.95 195.695C224.394 189.497 222.627 182.511 222.627 174.739C222.627 166.965 224.394 160.033 227.95 153.941C231.634 147.847 236.594 143.12 242.897 139.76C249.178 136.398 256.247 134.718 264.104 134.718C271.13 134.718 277.475 136.136 283.139 138.972C288.781 141.809 293.338 145.905 296.808 151.262V135.348H307.497ZM265.211 205.149C271.173 205.149 276.581 203.888 281.393 201.367C286.226 198.74 289.931 195.116 292.55 190.495C295.275 185.873 296.638 180.62 296.638 174.739C296.638 168.856 295.275 163.656 292.55 159.14C289.931 154.518 286.226 150.947 281.393 148.426C276.687 145.799 271.279 144.487 265.211 144.487C259.228 144.487 253.841 145.748 249.029 148.269C244.302 150.79 240.576 154.36 237.872 158.983C235.232 163.603 233.933 168.856 233.933 174.739C233.933 180.62 235.232 185.873 237.872 190.495C240.576 195.116 244.302 198.74 249.029 201.367C253.841 203.888 259.228 205.149 265.211 205.149ZM367.625 134.718C378.399 134.718 386.682 137.448 392.452 142.911C398.222 148.269 401.096 156.251 401.096 166.861V218.226H390.408V205.306C387.895 209.611 384.169 212.974 379.251 215.39C374.417 217.805 368.669 219.014 361.962 219.014C352.743 219.014 345.397 216.808 339.946 212.396C334.495 207.985 331.791 202.155 331.791 194.907C331.791 187.868 334.303 182.196 339.328 177.89C344.46 173.583 352.572 171.43 363.686 171.43H389.939V166.388C389.939 159.245 387.938 153.834 383.956 150.159C379.975 146.378 374.162 144.487 366.518 144.487C361.28 144.487 356.255 145.379 351.422 147.166C346.61 148.846 342.458 151.209 339.009 154.256L333.984 145.905C338.178 142.332 343.204 139.603 349.08 137.712C354.935 135.715 361.11 134.718 367.625 134.718ZM363.686 210.191C369.967 210.191 375.376 208.773 379.868 205.936C384.382 202.994 387.725 198.793 389.939 193.331V179.781H364.006C349.847 179.781 342.778 184.717 342.778 194.592C342.778 199.423 344.609 203.258 348.292 206.094C351.954 208.824 357.086 210.191 363.686 210.191ZM453.56 219.014C446.853 219.014 440.423 218.069 434.227 216.178C428.159 214.183 423.389 211.713 419.94 208.773L424.965 199.949C428.414 202.679 432.758 204.938 437.996 206.724C443.255 208.404 448.684 209.245 454.348 209.245C461.906 209.245 467.442 208.089 471.019 205.779C474.682 203.362 476.512 200 476.512 195.695C476.512 192.648 475.512 190.285 473.532 188.605C471.53 186.818 469.018 185.507 465.973 184.666C462.95 183.72 458.904 182.828 453.879 181.987C447.172 180.726 441.785 179.466 437.697 178.205C433.609 176.838 430.096 174.581 427.158 171.43C424.326 168.279 422.921 163.918 422.921 158.353C422.921 151.42 425.795 145.748 431.565 141.336C437.314 136.924 445.341 134.718 455.604 134.718C460.948 134.718 466.292 135.453 471.636 136.924C476.981 138.289 481.389 140.126 484.838 142.439L479.962 151.42C473.17 146.693 465.036 144.33 455.604 144.33C448.493 144.33 443.084 145.59 439.422 148.111C435.866 150.632 434.078 153.941 434.078 158.037C434.078 161.189 435.078 163.71 437.058 165.6C439.166 167.491 441.721 168.909 444.766 169.855C447.811 170.694 451.984 171.588 457.328 172.533C463.929 173.794 469.231 175.054 473.213 176.315C477.194 177.575 480.6 179.728 483.432 182.775C486.264 185.82 487.669 190.023 487.669 195.38C487.669 202.628 484.625 208.404 478.556 212.712C472.573 216.913 464.248 219.014 453.56 219.014ZM551.844 213.184C549.736 215.075 547.117 216.544 543.987 217.596C540.942 218.541 537.749 219.014 534.384 219.014C526.634 219.014 520.672 216.913 516.477 212.712C512.283 208.509 510.196 202.574 510.196 194.907V144.802H495.42V135.348H510.196V117.229H521.353V135.348H546.499V144.802H521.353V194.277C521.353 199.212 522.546 202.996 524.973 205.621C527.485 208.142 531.041 209.403 535.64 209.403C537.961 209.403 540.154 209.034 542.262 208.3C544.455 207.565 546.329 206.513 547.904 205.149L551.844 213.184ZM582.845 151.577C585.464 146.009 589.339 141.809 594.47 138.972C599.708 136.136 606.159 134.718 613.803 134.718V145.59L611.142 145.432C602.433 145.432 595.62 148.111 590.702 153.468C585.783 158.825 583.313 166.335 583.313 176V218.226H572.156V135.348H582.845V151.577ZM667.033 219.014C659.07 219.014 651.895 217.228 645.507 213.657C639.12 209.98 634.073 204.938 630.411 198.531C626.749 192.122 624.918 184.876 624.918 176.787C624.918 168.698 626.749 161.451 630.411 155.044C634.073 148.635 639.12 143.646 645.507 140.075C651.895 136.502 659.07 134.718 667.033 134.718C674.996 134.718 682.172 136.502 688.559 140.075C694.968 143.646 699.929 148.635 703.506 155.044C707.169 161.451 709 168.698 709 176.787C709 184.876 707.169 192.122 703.506 198.531C699.929 204.938 694.968 209.98 688.559 213.657C682.172 217.228 674.996 219.014 667.033 219.014ZM667.033 209.088C672.91 209.088 678.148 207.774 682.747 205.149C687.474 202.417 691.136 198.582 693.755 193.647C696.374 188.709 697.673 183.09 697.673 176.787C697.673 170.485 696.374 164.864 693.755 159.928C691.136 154.99 687.474 151.209 682.747 148.584C678.148 145.852 672.91 144.487 667.033 144.487C661.178 144.487 655.876 145.852 651.149 148.584C646.55 151.209 642.888 154.99 640.163 159.928C637.544 164.864 636.224 170.485 636.224 176.787C636.224 183.09 637.544 188.709 640.163 193.647C642.888 198.582 646.55 202.417 651.149 205.149C655.876 207.774 661.178 209.088 667.033 209.088Z" fill="#FFFFFF"/>
<path fill-rule="evenodd" clip-rule="evenodd" d="M166.999 108.984C166.539 108.828 166.076 108.677 165.609 108.528C170.173 106.138 174.236 103.32 177.797 100.076L134.322 111.291L136.08 118.019L166.999 108.984ZM177.513 113.518L147.917 125.16C147.917 125.16 146.052 125.801 145.325 125.988C137.416 128.031 129.415 126.203 123.331 121.754C110.265 115.21 99.1824 116.464 90.6786 119.541C89.0783 120.115 87.6236 120.77 86.2085 121.416L87.1474 124.952L64.4197 130.815H112.784C140.484 130.815 154.346 140.181 154.346 158.917C154.346 168.392 150.79 175.39 143.7 179.911C136.844 184.433 126.517 186.694 112.784 186.694H51.8886V134.048L0 147.434V226.102H116.638C146.063 226.102 168.42 220.826 183.665 210.273C199.123 199.506 206.852 184.218 206.852 164.408C206.852 150.41 203.211 138.676 195.908 129.201C191.025 122.722 184.895 117.494 177.513 113.518ZM0 126.684V0H110.207C137.695 0 158.753 5.27411 173.359 15.8265C188.179 26.3768 195.588 40.6979 195.588 58.7857C195.588 66.996 194.089 74.5435 191.081 81.43C190.51 80.4255 189.317 79.885 188.161 80.1804L130.499 95.0611L128.734 88.3459C128.923 88.2596 129.109 88.1721 129.293 88.0833L186.72 75.0158C188.135 74.6864 189.021 73.2564 188.65 71.8277L188.412 70.9284C188.069 69.65 186.852 68.8408 185.516 69.0264L141.555 75.2091C142.559 72.4284 143.061 69.3223 143.061 65.8909C143.061 57.0631 139.739 50.4944 133.075 46.1892C126.411 41.6667 116.637 39.4054 103.756 39.4054H51.8886V92.6998H103.756C107.365 92.6998 110.729 92.5225 113.85 92.1678C106.563 101.901 96.4076 105.708 87.4516 107.288C85.8381 107.59 84.2246 107.804 82.6773 107.96L82.0293 105.516L9.14547 124.323L0 126.684ZM189.226 85.2423L131.425 100.159L132.92 105.797L184.688 92.4346C185.695 91.0697 186.638 89.6513 187.518 88.1795C188.121 87.2153 188.69 86.2362 189.226 85.2423Z" fill="#FFFFFF"/>
</svg>
