<svg width="416" height="131" viewBox="0 0 416 131" fill="none" xmlns="http://www.w3.org/2000/svg">
<g clip-path="url(#clip0)">
<path d="M242.003 30.6907C242.397 30.9527 242.923 30.9345 243.299 30.6484C243.653 30.3789 243.811 29.9063 243.696 29.4776C243.573 29.0179 243.157 28.6801 242.682 28.6544C242.209 28.6288 241.761 28.9165 241.587 29.3561C241.397 29.8352 241.57 30.4068 242.003 30.6907Z" fill="#F0F1F4" fill-opacity="0.61"/>
<path d="M246.854 32.9093C246.482 32.4196 245.784 32.3233 245.294 32.6953C244.804 33.0668 244.708 33.7651 245.08 34.2551C249.481 40.0566 251.881 46.9319 252.048 54.1864L247.724 55.5584C247.267 52.2751 246.533 49.2131 245.539 46.4394C245.538 46.4392 245.538 46.439 245.538 46.4387C244.525 43.6106 243.215 41.0109 241.644 38.7115C241.644 38.7107 241.643 38.7101 241.643 38.7093C236.369 30.9914 227.976 26.2989 216.682 24.7495L218.059 20.4763C225.353 20.6391 232.269 23.0077 238.109 27.3513C238.308 27.4997 238.541 27.5714 238.772 27.5714C239.112 27.5714 239.448 27.4161 239.666 27.1224C240.033 26.629 239.931 25.9318 239.437 25.5647C232.995 20.7733 225.323 18.2407 217.251 18.2407C216.768 18.2407 216.34 18.5526 216.192 19.0126L207.642 45.5417L204.69 54.7C204.688 54.7059 204.686 54.7119 204.684 54.7178L200.899 66.4618C200.464 67.8138 200.818 69.2801 201.822 70.2887C202.836 71.3072 204.319 71.6697 205.693 71.2336L221.967 66.0688V70.529C221.967 73.0584 224.001 75.1711 226.501 75.2389C226.545 75.2402 226.589 75.2408 226.633 75.2408C227.86 75.2408 229.014 74.7737 229.894 73.9171C230.798 73.0373 231.296 71.8602 231.296 70.6026V63.1078L237.144 61.2518V66.3008C237.144 68.4634 238.914 70.2227 241.09 70.2227C242.141 70.2227 243.13 69.8161 243.876 69.0765C244.623 68.3345 245.034 67.3487 245.034 66.3007V58.7478L253.507 56.059C253.97 55.9124 254.284 55.483 254.284 54.9979C254.284 46.9554 251.715 39.3172 246.854 32.9093ZM240.263 40.6581C241.385 42.4077 242.353 44.3339 243.15 46.403C242.685 46.6543 242.161 46.7883 241.623 46.7883C239.85 46.7883 238.408 45.3461 238.408 43.5732C238.408 42.3097 239.156 41.1777 240.263 40.6581ZM210.508 52.9704C209.614 53.8578 208.408 54.2929 207.189 54.2053L209.713 46.3745C210 46.549 210.268 46.7576 210.508 46.9957C211.313 47.7946 211.756 48.8559 211.756 49.9841C211.756 51.1116 211.313 52.1722 210.508 52.9704ZM206.863 68.5258C206.879 66.7886 208.297 65.38 210.038 65.38C211.075 65.38 212.029 65.8914 212.615 66.7006L206.863 68.5258ZM224.917 62.2074C223.29 63.8226 220.642 63.8225 219.014 62.2074C218.229 61.4278 217.796 60.3919 217.796 59.2906C217.796 58.1891 218.229 57.1533 219.014 56.3736C219.828 55.566 220.897 55.1623 221.966 55.1623C223.035 55.1623 224.104 55.566 224.918 56.3736C225.703 57.1532 226.136 58.1892 226.136 59.2906C226.136 60.3919 225.703 61.4279 224.917 62.2074ZM243.584 56.8724C243.121 57.0192 242.807 57.4485 242.807 57.9334V66.3008C242.807 66.7513 242.629 67.1762 242.307 67.4962C241.982 67.8186 241.55 67.9962 241.09 67.9962C240.142 67.9962 239.371 67.2356 239.371 66.3008V59.7302C239.371 59.3752 239.201 59.0416 238.915 58.8318C238.628 58.6222 238.259 58.5617 237.921 58.6692L229.846 61.2321C229.384 61.3788 229.069 61.8081 229.069 62.2931V70.6026C229.069 71.2541 228.811 71.8645 228.341 72.3215C227.864 72.7857 227.235 73.033 226.561 73.0133C225.256 72.9779 224.193 71.8635 224.193 70.529V65.2477C225.03 64.9405 225.815 64.4539 226.486 63.7879C226.486 63.7879 226.486 63.7879 226.486 63.7878C227.696 62.587 228.362 60.9898 228.362 59.2905C228.362 57.5911 227.696 55.994 226.486 54.7932C223.994 52.3198 219.938 52.3197 217.446 54.7931C216.236 55.9939 215.57 57.5912 215.57 59.2905C215.57 60.9898 216.236 62.587 217.446 63.7878C217.835 64.1737 218.262 64.4994 218.715 64.7649L214.801 66.0071C213.874 64.2841 212.049 63.1537 210.038 63.1537C207.06 63.1537 204.636 65.5769 204.636 68.5554C204.636 68.766 204.649 68.9753 204.673 69.1828C204.203 69.2278 203.745 69.0645 203.4 68.7178C202.98 68.2961 202.837 67.7079 203.019 67.1444L206.492 56.366C206.829 56.4185 207.165 56.4445 207.501 56.4445C209.189 56.4445 210.832 55.7862 212.077 54.5512C213.306 53.3317 213.982 51.7098 213.982 49.9843C213.982 48.2582 213.305 46.6356 212.076 45.4155C211.586 44.9298 211.021 44.525 210.408 44.2173L215.988 26.9034C226.249 28.2351 233.971 32.2388 238.977 38.8186C237.294 39.762 236.181 41.5702 236.181 43.5735C236.181 46.574 238.622 49.0152 241.623 49.0152C242.413 49.0152 243.185 48.8441 243.891 48.5207C244.644 50.9006 245.207 53.4883 245.57 56.2417L243.584 56.8724Z" fill="#F0F1F4" fill-opacity="0.61"/>
<path d="M229.033 37.0919C229.033 35.3016 228.331 33.619 227.056 32.3537C224.43 29.748 220.157 29.748 217.531 32.3537C216.256 33.6189 215.554 35.3015 215.554 37.0919C215.554 38.8821 216.256 40.5647 217.531 41.83C218.844 43.1329 220.569 43.7843 222.293 43.7843C224.018 43.7843 225.743 43.1329 227.056 41.83C228.331 40.5647 229.033 38.8821 229.033 37.0919ZM225.487 40.2493C223.726 41.9971 220.861 41.9971 219.099 40.2493C218.249 39.4055 217.781 38.2842 217.781 37.0919C217.781 35.8995 218.249 34.7782 219.099 33.9344C219.98 33.0604 221.137 32.6236 222.293 32.6236C223.45 32.6236 224.607 33.0605 225.487 33.9344C226.338 34.7782 226.806 35.8995 226.806 37.0919C226.806 38.2842 226.338 39.4055 225.487 40.2493Z" fill="#F0F1F4" fill-opacity="0.61"/>
<path d="M233.384 46.6459C231.12 44.3074 227.363 44.2586 225.01 46.5371C224.798 46.7426 224.676 47.0238 224.671 47.3189C224.666 47.614 224.779 47.8992 224.984 48.1112L231.649 54.994C231.867 55.2195 232.158 55.3329 232.449 55.3329C232.728 55.3329 233.007 55.2287 233.223 55.0195C235.576 52.7409 235.649 48.9846 233.384 46.6459ZM232.357 52.5244L227.476 47.4836C228.884 46.7734 230.641 47.0141 231.785 48.1948C232.928 49.3756 233.112 51.1398 232.357 52.5244Z" fill="#F0F1F4" fill-opacity="0.61"/>
</g>
<g clip-path="url(#clip1)">
<path d="M61.6509 65.5444C61.6746 65.3326 61.7015 65.1095 61.7303 64.877L65.9514 66.2445C66.6782 66.4799 67.4585 66.0814 67.6938 65.3546C67.9299 64.6279 67.5314 63.8476 66.8039 63.6122L62.1486 62.1047C62.4155 60.591 62.7814 58.8737 63.2822 57.0464L73.674 60.4127C73.7958 60.4522 73.8892 60.5497 73.9224 60.6736L75.3018 65.7496C75.3501 65.9289 75.2723 66.052 75.1981 66.1226C75.1232 66.1939 74.997 66.2659 74.8205 66.2084L72.1219 65.3345C71.3952 65.0991 70.6149 65.4976 70.3795 66.2244C70.1442 66.9512 70.5427 67.7315 71.2694 67.9668L73.968 68.8407C75.067 69.197 76.2699 68.9229 77.1066 68.125C77.9432 67.3279 78.2749 66.1392 77.9714 65.0238L77.4014 62.9264L79.0041 63.1839C80.0566 63.353 81.1133 62.9836 81.8306 62.1947L85.3691 58.3029C85.4566 58.2069 85.5356 58.1062 85.609 58.0024L93.5661 58.3213C94.7208 58.3675 95.805 57.7793 96.3958 56.7856C96.9865 55.7919 96.9847 54.558 96.3921 53.5659L93.6939 49.0499C93.1479 48.1354 92.1852 47.5632 91.1204 47.5206L84.8184 47.268L85.9699 45.65L91.187 45.859C92.2517 45.9017 93.2572 45.4091 93.8746 44.5405L96.9255 40.2549C97.5956 39.3133 97.6961 38.0844 97.1868 37.0465C96.6775 36.0087 95.6438 35.3349 94.4891 35.2886L77.5706 34.6107C77.6008 34.1994 77.5507 33.7756 77.4108 33.3612C76.9585 32.0184 75.7006 31.164 74.2815 31.2355L64.3362 31.734C63.5732 31.7726 62.9861 32.424 63.0241 33.1848C63.0628 33.9478 63.712 34.5355 64.4749 34.4976L74.4203 33.9984C74.4897 33.9947 74.7014 33.9845 74.789 34.2454C74.8516 34.4289 74.7994 34.5797 74.6355 34.6921C62.5983 42.9281 59.6226 58.7962 58.9016 65.2366C58.8836 65.3989 58.7843 65.4836 58.7047 65.5258C58.6391 65.5607 58.5053 65.6072 58.3506 65.5268L47.3332 59.7602L55.5302 34.946L58.869 34.7784C59.6319 34.7398 60.2189 34.0913 60.181 33.3276C60.1424 32.5646 59.4932 31.9769 58.7302 32.0155L6.23393 34.6485C4.76051 34.6198 3.52267 35.5501 3.14012 36.9812C3.07563 37.2231 3.03927 37.4646 3.02975 37.7022C2.98195 38.895 3.60836 39.9974 4.71997 40.5799L23.1008 50.1999C23.1064 50.203 23.1114 50.2054 23.117 50.2085L31.0814 54.3767C31.7579 54.7311 32.594 54.4697 32.9485 53.7924C33.303 53.1159 33.0409 52.2797 32.3643 51.926L25.4381 48.3006L29.4172 36.2561L30.9497 36.179C32.2274 39.9033 35.671 42.5174 39.6916 42.6785C44.3465 42.8651 48.4285 39.6779 49.4712 35.2498L52.5672 35.0948L44.8486 58.4601L37.6244 54.6785C36.9471 54.3247 36.1117 54.5862 35.7573 55.2628C35.6589 55.4506 35.6084 55.6498 35.6004 55.8485C35.5797 56.3661 35.8521 56.8738 36.3415 57.1299L57.0677 67.9782C57.9879 68.4599 59.0855 68.4563 60.0035 67.9689C60.92 67.4814 61.5361 66.5752 61.6509 65.5444ZM79.7839 60.3331C79.6971 60.4284 79.5706 60.4724 79.4438 60.4521L76.6053 59.9959L76.592 59.9478C76.3131 58.9199 75.5409 58.1095 74.5265 57.7811L64.0834 54.3984C64.2547 53.8846 64.4363 53.3662 64.6295 52.8447L83.1023 55.8138C83.2865 55.8428 83.3652 55.9649 83.3995 56.0622C83.4332 56.1587 83.4475 56.3035 83.3223 56.4413L79.7839 60.3331ZM91.3188 50.469L94.017 54.985C94.1123 55.1445 94.07 55.2834 94.0174 55.3722C93.9648 55.4602 93.8626 55.5643 93.6769 55.5568L86.043 55.2509C86.0321 55.2166 86.0227 55.1816 86.0111 55.148C85.6286 54.0568 84.6826 53.2654 83.5413 53.082L65.7018 50.2147C65.7319 50.1474 65.762 50.0801 65.7928 50.0129L80.6905 50.6098C81.4428 50.64 82.164 50.4021 82.7415 49.9537L91.0096 50.285C91.1378 50.2901 91.2533 50.3589 91.3188 50.469ZM83.8818 42.8039C84.0675 42.8113 84.1611 42.9232 84.2065 43.0152C84.2518 43.1079 84.2829 43.2497 84.1744 43.4011L81.1242 47.6867C81.0501 47.7912 80.9294 47.8505 80.8013 47.8454L67.144 47.2981C68.0955 45.5596 69.2063 43.8605 70.5009 42.2677L83.8818 42.8039ZM75.727 37.3057L94.3783 38.0531C94.5647 38.0605 94.6576 38.1724 94.7029 38.2651C94.7483 38.357 94.7793 38.4989 94.6716 38.651L91.6207 42.9359C91.5466 43.0404 91.4259 43.0997 91.2978 43.0946L86.9992 42.9223C86.9678 42.5375 86.8663 42.1556 86.6903 41.7974C86.181 40.7595 85.1473 40.0857 83.9926 40.0395L72.9651 39.5976C73.8212 38.7832 74.7396 38.0153 75.727 37.3057ZM22.9543 47.0005L6.00291 38.1285C5.93651 38.0941 5.7345 37.9887 5.81259 37.6954C5.89137 37.4029 6.11886 37.4121 6.19373 37.4151C6.23549 37.4167 6.27658 37.4169 6.31776 37.415L26.4542 36.4048L22.9543 47.0005ZM39.8024 39.9141C37.2136 39.8104 34.961 38.2816 33.8765 36.0324L46.5472 35.3965C45.5424 38.141 42.8433 40.036 39.8024 39.9141Z" fill="#F0F1F4" fill-opacity="0.6"/>
</g>
<path d="M347.031 81.0593C347.522 81.5511 348.32 81.5511 348.812 81.0593L358.882 70.9892C359.373 70.4974 359.373 69.7 358.882 69.2081C358.39 68.7163 357.592 68.7163 357.101 69.2081L355.662 70.6463C355.45 70.314 355.201 70.0025 354.915 69.7169C352.835 67.637 349.489 67.5992 347.455 69.6328C345.422 71.6662 345.459 75.0127 347.539 77.0926C347.825 77.378 348.136 77.6281 348.469 77.84L347.031 79.2782C346.539 79.77 346.539 80.5675 347.031 81.0593ZM349.236 71.4139C350.288 70.3625 352.036 70.4003 353.134 71.4982C353.428 71.7924 353.652 72.1366 353.796 72.5129L350.335 75.9736C349.959 75.8295 349.615 75.6057 349.321 75.3115C348.223 74.2137 348.185 72.4652 349.236 71.4139Z" fill="#F0F1F4" fill-opacity="0.6"/>
<path d="M368.302 58.0672C368.213 57.9615 368.121 57.8595 368.023 57.7618L366.87 56.6092C365.135 54.8741 362.358 54.8183 360.626 56.4638L355.352 41.2422C355.125 40.5848 354.407 40.2368 353.75 40.4644C353.093 40.6921 352.745 41.4096 352.972 42.0667L361.018 65.2904L360.233 66.0754C359.742 66.5672 359.742 67.3647 360.233 67.8565C360.725 68.3483 361.523 68.3483 362.014 67.8565L363.337 66.5335C363.35 66.5211 363.363 66.5083 363.376 66.4954L365.595 64.276C366.087 63.7842 366.087 62.9867 365.595 62.4949C365.103 62.0031 364.306 62.0031 363.814 62.4949L362.998 63.3105L361.542 59.108L362.327 58.323C363.07 57.5802 364.309 57.6104 365.089 58.3904L366.242 59.543C366.495 59.7969 366.673 60.1009 366.77 60.4468C366.891 60.8776 367.231 61.2119 367.664 61.3253C368.097 61.4386 368.557 61.3138 368.873 60.9975L369.623 60.2481C370.366 59.5053 371.605 59.5356 372.385 60.3156L373.537 61.4682C374.317 62.2482 374.348 63.4872 373.605 64.23L361.39 76.4444C360.899 76.9363 360.899 77.7337 361.39 78.2255L362.543 79.3781C363.323 80.1581 363.353 81.3972 362.61 82.14C361.868 82.8828 360.629 82.8526 359.849 82.0726C359.357 81.5808 358.559 81.5808 358.067 82.0726C357.576 82.5644 357.576 83.3618 358.067 83.8537L363.83 89.6167C364.61 90.3967 364.641 91.6357 363.898 92.3786C363.155 93.1214 361.916 93.0911 361.136 92.3111L354.22 85.3955C353.729 84.9037 352.931 84.9037 352.439 85.3955L348.989 88.8455C348.246 89.5883 347.007 89.558 346.227 88.778L345.075 87.6254C344.295 86.8454 344.265 85.6064 345.007 84.8635L345.757 84.1142C346.073 83.7979 346.198 83.3374 346.085 82.9046C345.971 82.4718 345.637 82.1315 345.206 82.0108C344.86 81.9139 344.556 81.7362 344.302 81.4823L343.15 80.3297C342.37 79.5497 342.339 78.3107 343.082 77.5678L344.503 76.1471C344.819 75.8308 344.944 75.3703 344.831 74.9375C344.718 74.5048 344.383 74.1645 343.952 74.0439C343.607 73.9471 343.303 73.7691 343.049 73.5152L341.896 72.3626C341.116 71.5826 341.086 70.3436 341.829 69.6008L344.626 66.8035C344.993 66.436 345.098 65.8806 344.888 65.4052L343.05 61.2332C342.664 60.3584 342.835 59.3738 343.484 58.7246C344.133 58.0753 345.118 57.9047 345.993 58.2901L350.165 60.1284C350.64 60.338 351.195 60.234 351.563 59.8665L354.36 57.0692C354.612 56.8178 354.929 56.6459 355.279 56.5722C355.96 56.4285 356.395 55.7602 356.251 55.0796C356.108 54.3991 355.439 53.9639 354.759 54.1076C353.93 54.2828 353.176 54.6909 352.579 55.2881L350.392 57.4758L347.008 55.985C345.175 55.1773 343.093 55.5536 341.703 56.9435C340.313 58.3333 339.937 60.4157 340.744 62.2488L342.235 65.632L340.047 67.8197C338.322 69.5446 338.353 72.3816 340.115 74.1437L341.267 75.2963C341.355 75.3839 341.446 75.4678 341.54 75.5477L341.301 75.7867C339.576 77.5117 339.607 80.3487 341.369 82.1108L342.521 83.2634C342.619 83.3611 342.721 83.4541 342.827 83.5422C341.518 85.2793 341.68 87.7933 343.294 89.4066L344.446 90.5592C345.761 91.8745 347.676 92.2249 349.279 91.6007L353.663 95.3086C353.669 95.3132 353.674 95.3177 353.68 95.3224L361.634 102.05C362.38 102.68 363.352 102.852 364.208 102.575L384.213 120.604C385.117 121.418 386.391 121.568 387.412 121.065L390.284 122.532C391.395 123.1 392.727 122.898 393.597 122.028L406.787 108.838C407.657 107.968 407.86 106.636 407.291 105.524L405.824 102.653C406.327 101.631 406.177 100.358 405.363 99.4538L387.334 79.449C387.611 78.593 387.44 77.6208 386.809 76.8751L385.364 75.1669C385.359 75.1604 385.353 75.154 385.348 75.1476L376.36 64.52C376.984 62.9165 376.634 61.0023 375.319 59.6872L374.166 58.5346C372.553 56.921 370.039 56.7592 368.302 58.0672ZM351.347 90.0503L353.33 88.0673L356.159 90.8966L354.413 92.6431L351.347 90.0503ZM384.886 78.5015C384.948 78.5756 384.956 78.6754 384.902 78.7287C384.428 79.2026 384.409 79.9646 384.857 80.4625L403.492 101.14C403.623 101.285 403.631 101.494 403.51 101.615L399.79 105.334C399.299 105.826 399.299 106.624 399.791 107.116C400.282 107.607 401.08 107.607 401.572 107.116L404.023 104.664L405.048 106.671C405.118 106.807 405.101 106.962 405.006 107.057L391.816 120.247C391.721 120.342 391.566 120.359 391.43 120.289L389.423 119.264L398.252 110.435C398.744 109.943 398.744 109.145 398.252 108.654C397.761 108.162 396.963 108.162 396.471 108.654L386.374 118.751C386.253 118.872 386.045 118.863 385.899 118.732L365.222 100.098C364.724 99.6495 363.962 99.6692 363.488 100.143C363.435 100.196 363.335 100.189 363.261 100.126L356.342 94.2756L357.94 92.6778L359.355 94.0925C361.117 95.8546 363.954 95.8848 365.679 94.1599C367.21 92.6284 367.359 90.2202 366.139 88.4661L370.928 87.4284C374.091 86.7431 376.963 85.1807 379.234 82.91L384.316 77.8281L384.886 78.5015ZM382.684 75.898L377.453 81.1288C375.525 83.0568 373.084 84.384 370.395 84.9666L364.627 86.2163C364.455 86.2535 364.283 86.2936 364.112 86.3363L362.732 84.9565C363.341 84.7481 363.909 84.4032 364.391 83.9211C366.116 82.1962 366.086 79.3591 364.324 77.597L364.062 77.335L374.81 66.5874L382.684 75.898Z" fill="#F0F1F4" fill-opacity="0.6"/>
<defs>
<clipPath id="clip0">
<rect width="57" height="57" fill="white" transform="translate(199 18.2407)"/>
</clipPath>
<clipPath id="clip1">
<rect width="94.4351" height="94.4351" fill="white" transform="translate(98.8998 3.78125) rotate(92.2948)"/>
</clipPath>
</defs>
</svg>
